<svg id="Layer_1" data-name="Layer 1" xmlns="http://www.w3.org/2000/svg" viewBox="0 0 1055.87 341.79"><defs><style>.cls-1{fill:red;}.cls-2{fill:#ff1b15;}.cls-3{fill:#8e8e8e;}.cls-4{fill:#262626;}</style></defs><title>Logo_Demirbaş yatay</title><path class="cls-1" d="M749,646.87,626.62,524.63l132.85-133,40.34,40.29-24.55,24.58,82,81.94Zm27.31-109.74-40.85-40.81-27.71,27.75,40.85,40.8Z" transform="translate(-432.06 -369.11)"/><path class="cls-1" d="M432.06,602.53l82-82L489.49,496l40.32-40.32L662.74,588.58,540.43,710.89ZM540.77,628.9l40.82-40.83-27.73-27.73L513,601.17Z" transform="translate(-432.06 -369.11)"/><rect class="cls-2" x="611.08" y="462.5" width="32.02" height="32.02" transform="translate(89.96 -672.37) rotate(45)"/><rect class="cls-2" x="619.95" y="382.34" width="63.9" height="63.9" transform="translate(51.82 -708.73) rotate(45)"/><rect class="cls-2" x="644.58" y="615.07" width="63.9" height="63.9" transform="translate(223.6 -657.98) rotate(45)"/><path class="cls-3" d="M881.38,565.22V484.87H915a42.73,42.73,0,0,1,17.22,3.32,33.16,33.16,0,0,1,12.38,8.89,40.35,40.35,0,0,1,7.26,12.66,44.3,44.3,0,0,1,2.53,15A45.79,45.79,0,0,1,952,539.56a41.55,41.55,0,0,1-7.15,12.88,33.28,33.28,0,0,1-12.6,9.29,43.56,43.56,0,0,1-17.78,3.49Zm21-17h10.69q9.78,0,15.19-6.86a26.13,26.13,0,0,0,5.4-16.66,30.57,30.57,0,0,0-1.8-10.63,19.5,19.5,0,0,0-6.41-8.55A17.92,17.92,0,0,0,914,501.86H902.43Z" transform="translate(-432.06 -369.11)"/><path class="cls-3" d="M1024,502.2H988.63V516h31.51v17.33H988.63v14.52H1023v17.33H967.58V484.87H1024Z" transform="translate(-432.06 -369.11)"/><path class="cls-3" d="M1108.48,484.87h19.8v80.35h-20.37V522.34l-14,27.23h-19.13l-14-27.23v42.88H1040.5V484.87h19.81l24.08,26.81Z" transform="translate(-432.06 -369.11)"/><path class="cls-3" d="M1166.77,477.38a12.43,12.43,0,0,1-16.43,0,13.08,13.08,0,0,1,0-16.77,12.47,12.47,0,0,1,16.43,0,13.12,13.12,0,0,1,0,16.77ZM1148,565.22V484.87h21v80.35Z" transform="translate(-432.06 -369.11)"/><path class="cls-3" d="M1230.46,565.22l-15.64-27.91h-6v27.91h-20.14V484.87h34.1q13.39,0,20.82,7.14t7.42,19.08q0,18.45-16,24l18.24,30.16Zm-21.61-63.36V521h11.82q9.45,0,9.45-9.79a9.78,9.78,0,0,0-2.3-6.75q-2.31-2.59-7-2.59Z" transform="translate(-432.06 -369.11)"/><path class="cls-3" d="M1267.82,565.22V484.87H1306q10.92,0,18.06,5.79a18.44,18.44,0,0,1,7.15,15q0,11.48-10.92,16.65v.11a18.23,18.23,0,0,1,10.58,6.7,20.11,20.11,0,0,1,3.94,12.66q0,10.47-7.37,16.93t-20.2,6.48ZM1289,516.49h11.48q5.05,0,7.65-2.14a7,7,0,0,0,2.59-5.63q0-8-10.24-8H1289Zm0,32.86h13.16a11.38,11.38,0,0,0,7.66-2.42,8,8,0,0,0,2.81-6.36,7.8,7.8,0,0,0-2.81-6.36q-2.82-2.3-8-2.3H1289Z" transform="translate(-432.06 -369.11)"/><path class="cls-3" d="M1397.57,565.22l-4.84-15.08h-26.55l-4.84,15.08h-21.27l29.37-80.35h20.37l29,80.35Zm-25.88-32.41h15.53l-7.76-24.2Z" transform="translate(-432.06 -369.11)"/><path class="cls-3" d="M1455.41,566.45a48.82,48.82,0,0,1-16.59-2.87,38.17,38.17,0,0,1-13.56-8L1434.6,541q9.45,8.1,20.59,8.1c4.2,0,7.3-.73,9.28-2.19a6.39,6.39,0,0,0,3-5.23,4.76,4.76,0,0,0-.62-2.42,7.72,7.72,0,0,0-1.41-1.8A8.94,8.94,0,0,0,1463,536c-1.09-.48-2-.84-2.7-1.07l-3.32-1c-1.5-.45-2.59-.79-3.26-1a73.55,73.55,0,0,1-9.34-3.55,42.44,42.44,0,0,1-7.77-4.78,19.64,19.64,0,0,1-5.85-7.09,21.57,21.57,0,0,1-2-9.56q0-11.6,8.39-18.07t22-6.47a48.89,48.89,0,0,1,26.67,7.32L1478,505.46q-9.1-5.4-17.89-5.4-5.17,0-8,1.86a5.72,5.72,0,0,0-2.81,5,5.93,5.93,0,0,0,3.32,5.4,58,58,0,0,0,10.75,4.28q11.8,3.72,18.17,9.17t6.36,15.14q0,10.58-8.84,18.06T1455.41,566.45Zm-2.25,31.63a33.94,33.94,0,0,1-12.37-2.26l3.71-11a16.51,16.51,0,0,0,6.19,1.12q4.5,0,4.5-2a1.68,1.68,0,0,0-.9-1.3,6.64,6.64,0,0,0-2.65-.9,15.1,15.1,0,0,0-4.33.06l2-9.45q9.23-1.81,15.47,1.68t6.25,9.91a13,13,0,0,1-4.73,10Q1461.61,598.07,1453.16,598.08Z" transform="translate(-432.06 -369.11)"/><path class="cls-4" d="M1076.59,583a5.48,5.48,0,0,1,3,.74,2.42,2.42,0,0,1,1.17,2.2V622.1h-7.62V597l-9.19,17.74h-7L1047.63,597V622.1H1040V586a2.47,2.47,0,0,1,1.2-2.23,5.48,5.48,0,0,1,3-.77,5.15,5.15,0,0,1,3.12.74,9.06,9.06,0,0,1,2.1,2.86l11,21,11-21a8.5,8.5,0,0,1,2-2.86A5.16,5.16,0,0,1,1076.59,583Z" transform="translate(-432.06 -369.11)"/><path class="cls-4" d="M1128.12,622.1l-3.26-9.63h-14.21l-3.26,9.63h-8.11l13.17-36q1.14-3.11,5.28-3.11c2.79,0,4.57,1.06,5.33,3.16l13.17,35.92Zm-15.24-16.22h9.75l-4.9-14.42Z" transform="translate(-432.06 -369.11)"/><path class="cls-4" d="M1184.94,622.1h-9.69L1162.41,606V622.1h-7.57V583.24h7.57v17.14l12.79-17.14h8.65l-14.8,19.32Z" transform="translate(-432.06 -369.11)"/><path class="cls-4" d="M1209.81,579.62a4.82,4.82,0,0,1-6.4,0,5.14,5.14,0,0,1,0-6.53,4.82,4.82,0,0,1,6.4,0,5,5,0,0,1,0,6.47Zm-7.19,42.48V583.24h7.84V622.1Z" transform="translate(-432.06 -369.11)"/><path class="cls-4" d="M1259.06,583.24h7.13V620a2,2,0,0,1-1.12,1.82,5.33,5.33,0,0,1-2.8.68,6.66,6.66,0,0,1-2.86-.49,5.23,5.23,0,0,1-1.87-1.69L1240.34,596V622.1h-7.24v-36a2.6,2.6,0,0,1,1.14-2.34,5.3,5.3,0,0,1,3-.77,5.94,5.94,0,0,1,3.18.66,9.79,9.79,0,0,1,2.37,2.61L1259.06,609Z" transform="translate(-432.06 -369.11)"/><path class="cls-4" d="M1313.7,622.1l-3.27-9.63h-14.2L1293,622.1h-8.11l13.17-36q1.15-3.11,5.28-3.11c2.8,0,4.57,1.06,5.34,3.16l13.17,35.92Zm-15.24-16.22h9.74l-4.9-14.42Z" transform="translate(-432.06 -369.11)"/><rect class="cls-4" x="897.87" y="231.85" width="107.13" height="7.39"/><rect class="cls-4" x="485.36" y="231.85" width="107.13" height="7.39"/></svg>